<svg xmlns="http://www.w3.org/2000/svg" xmlns:xlink="http://www.w3.org/1999/xlink" width="218.149" height="20.405" viewBox="0 0 218.149 20.405">
  <defs>
    <linearGradient id="linear-gradient" x1="0.056" y1="0.102" x2="0.904" y2="0.924" gradientUnits="objectBoundingBox">
      <stop offset="0" stop-color="#eb3dcb"/>
      <stop offset="0.056" stop-color="#e139cd"/>
      <stop offset="0.509" stop-color="#9b1bdf"/>
      <stop offset="0.835" stop-color="#6e09eb"/>
      <stop offset="1" stop-color="#5e02f0"/>
    </linearGradient>
  </defs>
  <g id="Group_1218" data-name="Group 1218" transform="translate(-5148.229 -2594.567)">
    <path id="Path_678" data-name="Path 678" d="M5156.209,2603.365v-2.452a.913.913,0,0,1,1.114-.89,7.592,7.592,0,0,1,5.809,6.332.915.915,0,0,1-.9,1.048h-2.4a.911.911,0,0,1-.889-.72,3.4,3.4,0,0,0-2.158-2.465A.9.9,0,0,1,5156.209,2603.365Zm-2.238-3.347a7.593,7.593,0,0,0-5.719,5.712.914.914,0,0,0,.887,1.121h2.454a.927.927,0,0,0,.863-.621,3.4,3.4,0,0,1,2.014-2.008.926.926,0,0,0,.622-.862v-2.454A.915.915,0,0,0,5153.971,2600.018Zm.5,10.567a3.4,3.4,0,0,1-2.011-2,.927.927,0,0,0-.863-.619h-2.456a.915.915,0,0,0-.887,1.123,7.6,7.6,0,0,0,5.716,5.7.914.914,0,0,0,1.121-.888v-2.457A.921.921,0,0,0,5154.472,2610.585Zm4.576-11.768a9.208,9.208,0,0,1,2,1.1.917.917,0,0,0,1.088.005,6.034,6.034,0,0,1,9.48,3.591.911.911,0,0,0,.89.724h2.4a.91.91,0,0,0,.9-1.046,10.218,10.218,0,0,0-17.064-5.88A.91.91,0,0,0,5159.048,2598.817Zm15.848,6.54h-2.4a.911.911,0,0,0-.888.717,6.031,6.031,0,0,1-5.879,4.717h-8.607a.911.911,0,0,0-.911.911v2.36a.91.91,0,0,0,.911.91h8.607a10.219,10.219,0,0,0,10.071-8.563A.911.911,0,0,0,5174.9,2605.357Z" fill="url(#linear-gradient)"/>
    <path id="Path_679" data-name="Path 679" d="M5292.258,2600.928v2.228h-2.585v-1.827c0-1.115-.58-1.427-1.427-1.427s-1.426.312-1.426,1.427v8.558c0,1.115.579,1.427,1.426,1.427s1.427-.312,1.427-1.427v-2.317h-1.516v-2.185h4.1v4.9c0,2.407-1.56,3.3-3.923,3.3h-.178c-2.363,0-3.923-.869-3.923-3.3v-9.361c0-2.319,1.56-3.3,3.923-3.3h.178C5290.7,2597.629,5292.258,2598.609,5292.258,2600.928Zm58.633,8.959c0,1.115-.491,1.427-1.337,1.427s-1.338-.312-1.338-1.427v-12.08h-2.585v12.482c0,2.429,1.516,3.3,3.878,3.3h.089c2.363,0,3.878-.891,3.878-3.3v-12.482h-2.585Zm15.487-8.781v9c0,2.363-1.56,3.3-3.923,3.3h-3.989v-15.6h3.989C5364.818,2597.807,5366.378,2598.743,5366.378,2601.106Zm-2.586.4c0-1.114-.579-1.426-1.426-1.426h-1.315v11.055h1.315c.847,0,1.426-.312,1.426-1.427Zm-39.621-3.7h-2.585v15.6h6.575v-2.318h-3.99Zm-44.826,3.3v9c0,2.363-1.56,3.3-3.922,3.3h-3.99v-15.6h3.99C5277.785,2597.807,5279.345,2598.743,5279.345,2601.106Zm-2.585.4c0-1.114-.579-1.426-1.427-1.426h-1.315v11.055h1.315c.848,0,1.427-.312,1.427-1.427Zm22.992,5.126h3.567v-2.273h-3.567v-4.279h4.258v-2.274h-6.843v15.6h6.909v-2.273h-4.324Zm13.023-9h-.045c-2.363,0-3.923.98-3.923,3.3v9.361c0,2.429,1.56,3.3,3.923,3.3h.045c2.362,0,3.922-.891,3.922-3.3v-3.232h-2.585v2.83c0,1.093-.535,1.427-1.36,1.427s-1.359-.334-1.359-1.427v-8.558c0-1.092.535-1.427,1.359-1.427s1.36.335,1.36,1.427v2.451h2.585v-2.852C5316.7,2598.609,5315.137,2597.629,5312.775,2597.629Zm27.933,3.3v9.361c0,2.362-1.56,3.3-3.922,3.3h-.179c-2.362,0-3.923-.936-3.923-3.3v-9.361c0-2.385,1.561-3.3,3.923-3.3h.179C5339.148,2597.629,5340.708,2598.565,5340.708,2600.928Zm-2.585.4c0-1.115-.58-1.427-1.427-1.427s-1.426.312-1.426,1.427v8.558c0,1.115.58,1.427,1.426,1.427s1.427-.312,1.427-1.427Zm-75.736,5.3h3.566v-2.273H5259.8v9.049h6.909v-2.273h-4.323Zm4.257-8.826H5259.8v2.274h6.843Z" fill="#fff"/>
    <path id="Path_680" data-name="Path 680" d="M5204.088,2597.851v6.495h2.958v-6.495h2.58v15.57h-2.58v-6.761h-2.958v6.761h-2.58v-15.57Zm11.823,15.57v-15.57h6.828v2.269h-4.248v4.271h3.559v2.269h-3.559v4.493h4.315v2.268Zm19.174-13.3h-2.6v13.3h-2.58v-13.3h-2.6v-2.269h7.785Zm9.376,9.832h-2.847l-.556,3.469h-2.491l2.892-15.57h3.247l2.936,15.57h-2.624Zm-.333-2.136-1.09-6.917-1.09,6.917Zm-55.685-9.965v2.269h7.785v-2.269Zm0,6.477h2.611v9.093h2.58v-9.093h2.594v-2.268h-7.785Z" fill="#fff"/>
  </g>
</svg>
